<?xml version="1.0" encoding="UTF-8"?>
<svg width="38px" height="30px" viewBox="0 0 38 30" version="1.1" xmlns="http://www.w3.org/2000/svg" xmlns:xlink="http://www.w3.org/1999/xlink">
    <!-- Generator: Sketch 50.2 (55047) - http://www.bohemiancoding.com/sketch -->
    <title>photo-camera</title>
    <desc>Created with Sketch.</desc>
    <defs></defs>
    <g id="Form" stroke="none" stroke-width="1" fill="none" fill-rule="evenodd">
        <g id="Personal-info" transform="translate(-263.000000, -243.000000)" fill="#C0C0C8" fill-rule="nonzero">
            <g id="Add-picture" transform="translate(232.000000, 208.000000)">
                <g id="photo-camera" transform="translate(31.000000, 35.000000)">
                    <path d="M33.5342045,29.9601136 L4.38193182,29.9601136 C1.96534091,29.9601136 0,27.9947727 0,25.5781818 L0,7.80715909 C0,5.39056818 1.96534091,3.42522727 4.38193182,3.42522727 L10.3304545,3.42522727 L10.8511364,1.66875 C11.0636364,0.707613636 11.9422727,0.00215909091 12.9756818,0.00215909091 L24.94125,0.00215909091 C25.9454545,0.00215909091 26.8342045,0.703977273 27.0694318,1.6775 L27.0832955,1.73738636 L27.5579545,3.42511364 L33.5348864,3.42511364 C35.9514773,3.42511364 37.9168182,5.39045455 37.9168182,7.80704545 L37.9168182,25.5779545 C37.9161364,27.9947727 35.9501136,29.9601136 33.5342045,29.9601136 Z M4.38193182,4.88590909 C2.77079545,4.88590909 1.46068182,6.19613636 1.46068182,7.80715909 L1.46068182,25.5780682 C1.46068182,27.1892045 2.77090909,28.4993182 4.38193182,28.4993182 L33.5342045,28.4993182 C35.1453409,28.4993182 36.4554545,27.1890909 36.4554545,25.5780682 L36.4554545,7.80715909 C36.4554545,6.19602273 35.1452273,4.88590909 33.5342045,4.88590909 L26.4515909,4.88590909 L25.6519318,2.03397727 C25.5781818,1.70238636 25.2794318,1.46215909 24.9405682,1.46215909 L12.9748864,1.46215909 C12.6309091,1.46215909 12.33875,1.69727273 12.2635227,2.03477273 L11.4193182,4.88590909 L4.38193182,4.88590909 Z M18.9592045,25.5452273 C13.8477273,25.5452273 9.68920455,21.3875 9.68920455,16.2767045 C9.68920455,11.1652273 13.8476136,7.0075 18.9592045,7.0075 C24.0693182,7.0075 28.2270455,11.1659091 28.2270455,16.2767045 C28.2269318,21.3868182 24.0692045,25.5452273 18.9592045,25.5452273 Z M18.9592045,8.46738636 C14.6531818,8.46738636 11.1498864,11.97 11.1498864,16.2760227 C11.1498864,20.5820455 14.6532955,24.0838636 18.9592045,24.0838636 C23.2644318,24.0838636 26.7663636,20.58125 26.7663636,16.2760227 C26.76625,11.97 23.2636364,8.46738636 18.9592045,8.46738636 Z M32.5913636,7.59681818 C31.8464773,7.59681818 31.2438636,8.20079545 31.2438636,8.94431818 C31.2438636,9.68852273 31.8463636,10.2917045 32.5913636,10.2917045 C33.3355682,10.2917045 33.9380682,9.68840909 33.9380682,8.94431818 C33.9373864,8.20079545 33.3347727,7.59681818 32.5913636,7.59681818 Z" id="Shape"></path>
                </g>
            </g>
        </g>
    </g>
</svg>
