<?xml version="1.0" encoding="UTF-8"?>
<svg width="12px" height="12px" viewBox="0 0 12 12" version="1.1" xmlns="http://www.w3.org/2000/svg" xmlns:xlink="http://www.w3.org/1999/xlink">
    <!-- Generator: Sketch 50.2 (55047) - http://www.bohemiancoding.com/sketch -->
    <title>access-denied</title>
    <desc>Created with Sketch.</desc>
    <defs></defs>
    <g id="Form" stroke="none" stroke-width="1" fill="none" fill-rule="evenodd">
        <g id="Education" transform="translate(-679.000000, -332.000000)" fill="#D8D8D8" fill-rule="nonzero">
            <g id="access-denied" transform="translate(679.000000, 332.000000)">
                <path d="M7.14445249,5.97741176 L11.715095,1.40839819 C12.0352941,1.08651584 12.0352941,0.563239819 11.715095,0.241411765 C11.3932127,-0.0804705882 10.8683077,-0.0804705882 10.5481086,0.241411765 L5.97746606,4.81042534 L1.40839819,0.241411765 C1.08651584,-0.0804705882 0.563239819,-0.0804705882 0.241411765,0.241411765 C-0.0804162896,0.563294118 -0.0804705882,1.08657014 0.241411765,1.40839819 L4.81042534,5.97741176 L0.241411765,10.5480543 C-0.0804705882,10.8682534 -0.0804705882,11.3932127 0.241411765,11.7150407 C0.563294118,12.0352398 1.08657014,12.0352398 1.40839819,11.7150407 L5.97741176,7.14439819 L10.5480543,11.7150407 C10.8682534,12.0352398 11.3932127,12.0352398 11.7150407,11.7150407 C12.0352398,11.3931584 12.0352398,10.8682534 11.7150407,10.5480543 L7.14445249,5.97741176 Z" id="Shape"></path>
            </g>
        </g>
    </g>
</svg>
